PathFileType	4	(X/Y/Z)	Patient4_TMGait_0pt4_03_right_35.trc.trc
DataRate	CameraRate	NumFrames	NumMarkers	Units	OrigDataRate	OrigDataStartFrame	OrigNumFrames
74.468085106383	74.468085106383	4	33	mm	74.468085106383	36	       141
Frame#	Time	Sacral			L.Shoulder			Chest			R.Shoulder			Neck			R.ASIS			L.ASIS			R.Thigh.Superior			R.Thigh.Lateral			R.Thigh.Inferior			R.Patella			L.Thigh.Superior			L.Thigh.Lateral			L.Thigh.Inferior			L.Patella			L.Shank.Superior			L.Shank.Lateral			L.Shank.Inferior			R.Shank.Superior			R.Shank.Lateral			R.Shank.Inferior			R.Heel			R.Midfoot.Superior			R.Midfoot.Lateral			R.Toe			L.Heel			L.Midfoot.Lateral			L.Midfoot.Superior			L.Toe			L.Elbow			L.Wrist			R.Elbow			R.Wrist			
		X1	Y1	Z1	X2	Y2	Z2	X3	Y3	Z3	X4	Y4	Z4	X5	Y5	Z5	X6	Y6	Z6	X7	Y7	Z7	X8	Y8	Z8	X9	Y9	Z9	X10	Y10	Z10	X11	Y11	Z11	X12	Y12	Z12	X13	Y13	Z13	X14	Y14	Z14	X15	Y15	Z15	X16	Y16	Z16	X17	Y17	Z17	X18	Y18	Z18	X19	Y19	Z19	X20	Y20	Z20	X21	Y21	Z21	X22	Y22	Z22	X23	Y23	Z23	X24	Y24	Z24	X25	Y25	Z25	X26	Y26	Z26	X27	Y27	Z27	X28	Y28	Z28	X29	Y29	Z29	X30	Y30	Z30	X31	Y31	Z31	X32	Y32	Z32	X33	Y33	Z33	

36	46.120000000000	872.821012231998	1002.395272241003	456.571888669836	1047.044991033013	1431.692101433710	272.279165061922	1140.983714908066	1371.464349657406	441.615933400055	1042.172877122253	1443.250626874188	608.463259615615	1014.412407025395	1496.268852137145	426.467045893009	1101.442165985584	945.597838820492	582.055342761797	1095.656406761796	965.126647160883	305.905257331399	1155.361064844744	747.825469037827	550.216430670652	1086.114351664135	635.641904098713	617.724402860648	1163.616437163215	586.419026738273	535.219982866829	1171.553136602275	498.948747819288	546.078138399361	1106.998603198970	736.658980413897	324.399996059722	995.608809777518	636.561235926204	259.430907432330	1069.267230136482	542.700118064195	311.870515342804	1057.104682437531	466.236046404323	311.086453553117	1003.815473091650	406.760527447973	305.319365544363	876.904718584690	330.560880263648	260.070460033779	895.722136802501	202.098065343225	317.864381939171	1146.106008922908	409.326568904094	558.701651606484	1080.875532037235	306.083913356938	627.292772005604	1124.499748951411	209.693451230615	567.516952817997	997.371990472436	43.123197689574	547.733136664973	1167.557609660957	98.038755697541	580.007164104988	1081.723802539423	37.695989753198	621.274684346754	1289.391612840259	46.430401207957	606.597009950327	732.780906813843	78.624948458985	362.470258322646	801.702572887346	53.828410505933	282.655280294326	896.042491939194	101.913930407468	302.639128931321	1009.957519935902	37.799009920291	276.579498395104	1067.161087694724	1079.743728581526	155.325449775303	1207.091391299712	860.081546684875	126.179558226212	984.362050707484	1115.312037115067	754.341048411412	1147.531884714355	912.434701994033	744.275177067469	
37	46.133428571429	873.892762001631	1002.596853418902	460.814172975364	1045.974500172622	1432.284067299215	275.840478367926	1141.054885968111	1372.298051970767	444.626227350648	1043.061551917218	1443.803948266051	612.020124681313	1014.152743013834	1496.715734969021	430.189469923655	1103.094746268059	946.080170784757	585.279212657316	1096.583343498886	966.008362998471	309.080673140375	1155.464670055352	747.360159596699	553.814439010278	1084.343015147011	635.563647526280	620.284522961269	1161.967466511682	585.903119564100	538.209361984707	1168.815942889491	498.369779237285	548.128324529505	1111.164519968334	737.827716472973	327.221176522103	1002.773427770130	635.986221502179	261.159152430477	1078.915182097358	542.974662196347	312.977490003459	1067.197557032027	465.141060555592	310.661362720285	1011.386811920579	406.327818447827	305.224871632824	881.843349737046	334.331799206492	260.704217492088	897.283455125304	205.004807959067	317.044334210548	1142.998299666032	408.888296294875	560.271592451064	1077.292582737202	305.760492146640	628.402502745127	1120.179282009490	209.359755856140	568.082286161040	992.114056672459	43.137108404234	547.773323797446	1162.316675163000	97.980905642404	580.215890681502	1076.426517903926	37.692247483127	621.380644180809	1284.156228401591	46.102093389986	606.858207277535	730.644017759938	87.380849329635	361.764313519921	798.322342784703	58.965450069081	282.250766799036	894.464081979818	103.544633291352	301.428845831400	1004.911263300450	37.366112107887	276.540131089866	1061.776458743083	1079.915394566938	159.516526010139	1189.093171396002	852.955797457315	129.953121513760	990.172421673726	1116.660153319673	760.831514604219	1163.912742297505	923.494516176433	747.423760771371	
38	46.146857142857	874.756295416680	1002.663804213969	465.031944908854	1044.794121244761	1432.686036562439	279.347705911672	1141.098545295546	1372.931586797809	447.536893110390	1044.057858733867	1444.214636010134	615.519613977346	1013.918597681182	1497.013313836410	433.865388993383	1104.536898414159	946.392142426248	588.398559385165	1097.151633631991	966.611481007051	312.227922390344	1155.277270104429	746.759038030064	557.556520600349	1082.150425040012	635.394555718955	622.888361243108	1159.988436679791	585.301817092469	541.333940795062	1165.750269541079	497.777035574478	550.298806374377	1115.705432049530	739.083321156927	330.000953942983	1010.833820488490	635.307467261023	262.769322077948	1089.576288872353	543.399514013443	314.118442209006	1078.418076637356	464.221134107049	310.397321743380	1020.145037916974	405.968234756204	305.186681193983	888.077050091396	338.424006741914	261.227824221673	899.798410365623	208.387846612837	316.214781007589	1139.616125445672	408.416176627237	561.928131489550	1073.435207076611	305.361915680169	629.540899425114	1115.678946240323	208.981624368102	568.690036357497	986.722870449200	43.121862720410	547.807293014922	1156.967396491176	97.852492036798	580.413983877856	1071.003258016270	37.654545136709	621.484137602402	1278.809929852875	45.702775975982	607.085164225915	729.383052573526	97.549498803038	360.965496678859	795.514160072417	65.292926825498	281.770785559100	893.484191298772	105.635660403623	300.256054208494	999.852715729975	36.765109048436	276.515666759826	1055.934518732620	1079.983735615566	163.543383868561	1170.906036870157	846.726319788213	134.012625707994	996.156307652756	1118.018546309445	767.309703957308	1180.053222938818	935.434254970396	750.296742828983	
39	46.160285714286	875.392902651768	1002.599423392014	469.186363078295	1043.511703475746	1432.903770342967	282.769537530876	1141.114228425462	1373.348609959599	450.313737138187	1045.163979274532	1444.470111697928	618.930214102889	1013.717388385072	1497.164187271654	437.462493023007	1105.744561697811	946.547569259519	591.385202694132	1097.299284870398	966.900632043523	315.321329917432	1154.840584353595	746.083439623170	561.279301893122	1079.753871995258	635.174282630540	625.504909210585	1157.772951127839	584.653618789815	544.455124494515	1162.457109937491	497.183068966641	552.531334426293	1120.536323479425	740.476761392792	332.707645623854	1019.635926794592	634.627071227683	264.286038532212	1101.035462490611	544.078385501604	315.324774055110	1090.578413461038	463.607065041856	310.390587990489	1029.968981654272	405.771458103305	305.274711617842	895.543889314644	342.859721946113	261.659313941902	903.256787422338	212.296310973943	315.438407091341	1136.053012468724	407.920158548026	563.635910722414	1069.405801626937	304.912481731086	630.707795419789	1111.064886027331	208.574622237633	569.331021074857	981.245730845584	43.085992635920	547.852623524678	1151.552442770132	97.681626208810	580.610761271522	1065.504448779086	37.595776314333	621.597591204325	1273.395107717461	45.278129216686	607.284008217134	729.105829020553	109.151591848428	360.094745058591	793.382791945670	72.909653212750	281.226841864081	893.125500694529	108.290281924668	299.185002658689	994.794861562570	35.964784856352	276.509693867254	1049.577736245431	1079.947781938856	167.426753744132	1152.700269869654	841.364025054857	138.378177231545	1002.381716601572	1119.350224471712	773.717906221281	1195.884315820654	948.186391692373	752.865097654023	
